<svg xmlns="http://www.w3.org/2000/svg" width="800" height="800" viewBox="0 0 512 512"><path d="M256.018 259.156c71.423 0 129.31-57.899 129.31-129.334C385.327 58.387 327.44.5 256.018.5 184.57.5 126.659 58.387 126.659 129.822c-.001 71.435 57.911 129.334 129.359 129.334zm0-192.96c35.131 0 63.612 28.482 63.612 63.625 0 35.144-28.481 63.625-63.612 63.625-35.168 0-63.638-28.481-63.638-63.625 0-35.143 28.469-63.625 63.638-63.625zm149.057 208.742c-7.285-14.671-27.508-26.872-54.394-5.701-36.341 28.619-94.664 28.619-94.664 28.619s-58.361 0-94.702-28.619c-26.873-21.171-47.083-8.97-54.381 5.701-12.75 25.563 1.634 37.926 34.096 58.761 27.721 17.803 65.821 24.452 90.411 26.935l-20.535 20.535c-28.918 28.905-56.826 56.838-76.201 76.213-11.59 11.577-11.59 30.354 0 41.931l3.48 3.506c11.59 11.577 30.354 11.577 41.943 0l76.201-76.214c28.943 28.919 56.851 56.839 76.225 76.214 11.59 11.577 30.354 11.577 41.943 0l3.48-3.506c11.59-11.59 11.59-30.354 0-41.943l-76.201-76.2-20.584-20.598c24.614-2.545 62.29-9.22 89.786-26.872 32.463-20.837 46.823-33.2 34.097-58.762z" id="7935ec95c421cee6d86eb22ecd128789"/></svg>